<?xml version="1.0" encoding="UTF-8" standalone="no"?>
<svg
   version="1.1"
   width="24"
   height="24"
   viewBox="0 0 24 24"
   id="svg4"
   sodipodi:docname="hamburger-off.svg"
   inkscape:version="1.1.2 (0a00cf5339, 2022-02-04, custom)"
   xmlns:inkscape="http://www.inkscape.org/namespaces/inkscape"
   xmlns:sodipodi="http://sodipodi.sourceforge.net/DTD/sodipodi-0.dtd"
   xmlns="http://www.w3.org/2000/svg"
   xmlns:svg="http://www.w3.org/2000/svg">
  <defs
     id="defs8" />
  <sodipodi:namedview
     id="namedview6"
     pagecolor="#ffffff"
     bordercolor="#666666"
     borderopacity="1.0"
     inkscape:pageshadow="2"
     inkscape:pageopacity="0.0"
     inkscape:pagecheckerboard="0"
     showgrid="false"
     inkscape:zoom="26.25"
     inkscape:cx="5.0857143"
     inkscape:cy="11.961905"
     inkscape:window-width="1920"
     inkscape:window-height="989"
     inkscape:window-x="0"
     inkscape:window-y="0"
     inkscape:window-maximized="1"
     inkscape:current-layer="svg4" />
  <path
     d="M20 11C21.11 11 22 11.9 22 13S21.11 15 20 15H18.2L14.2 11H20M20.42 19.77L20.42 19.76L17.66 17H17.65L15.65 15H15.66L11.66 11H11.66L9.66 9H9.66L2.39 1.73L1.11 3L4.12 6C3 7.5 3 9 3 9H7.11L9.11 11H4C2.9 11 2 11.9 2 13S2.9 15 4 15H13.11L15.11 17H3V18C3 19.66 4.34 21 6 21H18C18.33 21 18.65 20.93 18.94 20.83L20.84 22.73L22.11 21.46L20.42 19.77M21 9C21 9 21 3 12 3C9.88 3 8.28 3.34 7.05 3.85L12.2 9H21Z"
     id="path2" />
  <path
     style="fill:#2e3440;stroke-width:0.0380952;fill-opacity:1"
     d="M 9.6617621,6.4236672 7.0951644,3.8568582 7.4098373,3.7355075 C 9.6019994,2.8901203 13.272565,2.7807058 15.839522,3.4842304 c 1.885701,0.5168134 3.284716,1.4463217 4.184826,2.7804062 0.501604,0.7434468 0.852853,1.6696739 0.92997,2.452291 l 0.02696,0.2735486 H 16.604816 12.22836 Z"
     id="path1013" />
  <path
     style="fill:#2e3440;fill-opacity:1;stroke-width:0.0380952"
     d="m 16.228434,12.989561 -1.980815,-1.981868 3.066667,0.01044 3.066666,0.01044 0.254427,0.09905 c 0.634255,0.246914 1.088751,0.723346 1.265823,1.326914 0.07884,0.268742 0.0788,0.803343 -7.7e-5,1.071886 -0.199128,0.677946 -0.744122,1.212619 -1.411386,1.384659 -0.185248,0.04776 -0.447491,0.06035 -1.25728,0.06035 h -1.02321 z"
     id="path1089" />
  <path
     style="fill:#2e3440;fill-opacity:1;stroke-width:0.0380952"
     d="m 19.891015,21.757685 -0.946374,-0.946942 -0.27232,0.08017 c -0.271226,0.07985 -0.297365,0.08022 -6.500892,0.09147 -4.1524663,0.0075 -6.3286458,-0.0019 -6.5288065,-0.02826 C 4.4601738,20.798326 3.5157043,19.999587 3.1405133,18.838095 3.0659431,18.607246 3.0521152,18.467815 3.0375611,17.8 L 3.0207489,17.028571 H 9.0910621 15.161376 L 14.133333,16 13.105291,14.971429 8.4193124,14.970976 c -3.9400044,-3.8e-4 -4.7185396,-0.0091 -4.8905138,-0.05489 -0.677708,-0.180378 -1.2333335,-0.72036 -1.429927,-1.389666 -0.093256,-0.317492 -0.079744,-0.839563 0.029758,-1.149761 0.2327388,-0.659304 0.7353096,-1.117306 1.4174827,-1.291776 0.2797014,-0.07154 0.4291052,-0.07536 2.9454267,-0.07536 H 9.1423181 L 8.1333333,10 7.1243486,8.9904762 H 5.0715379 3.0187268 L 3.0458808,8.7142857 C 3.1201307,7.9590686 3.4808845,6.9911349 3.9477462,6.2945032 4.0498191,6.1421939 4.1333333,6.0077604 4.1333333,5.9957619 c 0,-0.011998 -0.6728571,-0.6876032 -1.4952381,-1.5013437 L 1.1428571,3.0148899 1.7619734,2.3932371 2.3810897,1.7715843 l 9.8477623,9.8477627 9.847762,9.847762 -0.619612,0.618759 -0.619613,0.618759 z"
     id="path1128" />
</svg>
