<?xml version="1.0" standalone="no"?>
<!DOCTYPE svg PUBLIC "-//W3C//DTD SVG 20010904//EN" "http://www.w3.org/TR/2001/REC-SVG-20010904/DTD/svg10.dtd">
<!-- Created using Krita: https://krita.org -->
<svg xmlns="http://www.w3.org/2000/svg" 
    xmlns:xlink="http://www.w3.org/1999/xlink"
    xmlns:krita="http://krita.org/namespaces/svg/krita"
    xmlns:sodipodi="http://sodipodi.sourceforge.net/DTD/sodipodi-0.dtd"
    width="734.4pt"
    height="734.4pt"
    viewBox="0 0 734.4 734.4">
<defs/>
<rect id="shape0" fill="none" width="734.4" height="734.4" rx="18" ry="18"/><rect id="shape0" transform="matrix(0.999999933512905 0 0 0.999999933512905 114.480016802618 28.0799981330424)" fill="#5e81ac" fill-rule="evenodd" stroke-opacity="0" stroke="#000000" stroke-width="0" stroke-linecap="square" stroke-linejoin="bevel" width="360.72" height="533.52" rx="18" ry="18"/><rect id="shape1" transform="matrix(0.999999933512905 0 0 0.999999933512905 186.480012015548 100.079993345972)" fill="#2e3440" fill-rule="evenodd" stroke-opacity="0" stroke="#000000" stroke-width="0" stroke-linecap="square" stroke-linejoin="bevel" width="360.72" height="533.52" rx="18" ry="18"/><rect id="shape2" transform="matrix(0.999999933512905 0 0 0.999999933512905 258.480007228476 172.0799885589)" fill="#5e81ac" fill-rule="evenodd" stroke-opacity="0" stroke="#000000" stroke-width="0" stroke-linecap="square" stroke-linejoin="bevel" width="360.72" height="532.8" rx="18" ry="18"/><path id="shape01" transform="matrix(14.3657938141856 0 0 14.3657938141856 316.8 316.8)" fill="#2e3440" stroke="none" stroke-width="1" stroke-linecap="square" stroke-linejoin="bevel" d="M15.3283 7.52215C16.229 7.52215 16.9512 8.25246 16.9512 9.14506C16.9512 10.0377 16.229 10.768 15.3283 10.768L13.8677 10.768L10.6219 7.52215L15.3283 7.52215M15.6691 14.6386L15.6691 14.6305L13.4295 12.3909L13.4214 12.3909L11.7985 10.768L11.8066 10.768L8.56081 7.52215L8.56081 7.52215L6.93791 5.89925L6.93791 5.89925L1.03866 0L0 1.03054L2.44247 3.4649C1.53364 4.68207 1.53364 5.89925 1.53364 5.89925L4.86871 5.89925L6.49161 7.52215L2.34509 7.52215C1.4525 7.52215 0.722192 8.25246 0.722192 9.14506C0.722192 10.0377 1.4525 10.768 2.34509 10.768L9.73742 10.768L11.3603 12.3909L1.53364 12.3909L1.53364 13.2023C1.53364 14.5493 2.62099 15.6367 3.968 15.6367L13.7054 15.6367C13.9732 15.6367 14.2329 15.5799 14.4682 15.4987L16.0099 17.0405L17.0405 16.0099L15.6691 14.6386M16.1398 5.89925C16.1398 5.89925 16.1398 1.03054 8.83671 1.03054C7.11643 1.03054 5.81811 1.30644 4.82002 1.72028L8.999 5.89925Z" sodipodi:nodetypes="cccccccccccccccccccccccccccccccccccccccc"/>
</svg>
